{"title":"I.Am.Number.Four.2011.BDRip.XVID.AC3.HQ.Hive-CM8","uid":6375024,"size":1861966092,"categoryP":"video","categoryS":"movies","magnet":"?xt=urn:btih:c176a2a6db44d55310765be796a8c3647c7273d1&amp;dn=I.Am.Number.Four.2011.BDRip.XVID.AC3.HQ.Hive-CM8&amp;tr=udp%3A%2F%2Ftracker.openbittorrent.com%3A80&amp;tr=udp%3A%2F%2Fopen.demonii.com%3A1337&amp;tr=udp%3A%2F%2Ftracker.coppersurfer.tk%3A6969&amp;tr=udp%3A%2F%2Fexodus.desync.com%3A6969","seeders":0,"leechers":1,"uploader":"sceneline","files":6,"time":1304827078,"description":"- &lt;a href=&quot;\nhttp://www.Speed.Cd&quot; rel=&quot;nofollow&quot; target=&quot;_NEW&quot;&gt;\nhttp://www.Speed.Cd&lt;/a&gt; \n       &lt;a href=&quot;\nhttp://www.Speed.Cd&quot; rel=&quot;nofollow&quot; target=&quot;_NEW&quot;&gt;\nhttp://www.Speed.Cd&lt;/a&gt;       the fast  and The Hottest Private Tracker on the net\n\nPlease Seed back to make the speed Faster!!!\n\nand don't forget to visit      ...... http://www.Speed.Cd..........\n-[img]http://img847.imageshack.us/img847/1125/ian4.jpg[/img]\n\n[color=blue][size=5][b]I.Am.Number.Four.2011.BDRip.XVID.AC3.HQ.Hive-CM8[/b][/size][/color]\n\n\n[b]Thx Hive\n\nCM8 Doing It Right The First Time :D\n\nSource Bluray\n\nVideo: 720x384 @bitrate 1800 2pass\nAudio: English DTS to AC3 5.1 @448\nSample: yes included\nSubs: yes english in srt /subs[/b]\n\n\n[url]http://akas.imdb.com/title/tt1464540/[/url]\n\nComplete name                    : I.Am.Number.Four.2011.BDRip.XVID.AC3.HQ.Hive-CM8.avi\nFormat                           : AVI\nFormat/Info                      : Audio Video Interleave\nFile size                        : 1.73 GiB\nDuration                         : 1h 49mn\nOverall bit rate                 : 2 257 Kbps\nWriting application              : Nandub v1.0rc2\nWriting library                  : Nandub build 1853/release\n\nVideo\nID                               : 0\nFormat                           : MPEG-4 Visual\nFormat profile                   : Advanced Simple@L5\nFormat settings, BVOP            : 1\nFormat settings, QPel            : Yes\nFormat settings, GMC             : No warppoints\nFormat settings, Matrix          : Default (H.263)\nMuxing mode                      : Packed bitstream\nCodec ID                         : XVID\nCodec ID/Hint                    : XviD\nDuration                         : 1h 49mn\nBit rate                         : 1 800 Kbps\nWidth                            : 720 pixels\nHeight                           : 384 pixels\nDisplay aspect ratio             : 1.850\nFrame rate                       : 23.976 fps\nColor space                      : YUV\nChroma subsampling               : 4:2:0\nBit depth                        : 8 bits\nScan type                        : Progressive\nCompression mode                 : Lossy\nBits/(Pixel*Frame)               : 0.272\nStream size                      : 1.38 GiB (80%)\nWriting library                  : XviD 1.2.1 (UTC 2008-12-04)\n\nAudio\nID                               : 1\nFormat                           : AC-3\nFormat/Info                      : Audio Coding 3\nMode extension                   : CM (complete main)\nCodec ID                         : 2000\nDuration                         : 1h 49mn\nBit rate mode                    : Constant\nBit rate                         : 448 Kbps\nChannel(s)                       : 6 channels\nChannel positions                : Front: L C R, Side: L R, LFE\nSampling rate                    : 48.0 KHz\nBit depth                        : 16 bits\nCompression mode                 : Lossy\nStream size                      : 351 MiB (20%)\nAlignment                        : Split accross interleaves\nInterleave, duration             : 42 ms (1.00 video frame)\nInterleave, preload duration     : 500 ms\n\n\n\nAlex Pettyfer\t ... \tJohn\nTimothy Olyphant\t... \tHenri\nTeresa Palmer\t... \tNumber 6\nDianna Agron\t... \tSarah\nCallan McAuliffe\t... \tSam\nKevin Durand\t... \tMogadorian Commander\nJake Abel\t... \tMark\n\n\nJohn is an extraordinary teen, masking his true identity and passing as a \ntypical high school student to elude a deadly enemy seeking to destroy him. \nThree like him have already been killed ... he is Number Four. \n \n\n\n[img]http://img864.imageshack.us/img864/9172/iiaa.png[/img]\n[img]http://img580.imageshack.us/img580/2006/iiaiaa.png[/img]\n[img]http://img845.imageshack.us/img845/2512/iiaiaiaa.png[/img]\n[img]http://img683.imageshack.us/img683/3534/iiaiaiaiaa.png[/img]\n[img]http://img202.imageshack.us/img202/2109/iiaiaiaiaiaa.png[/img]\n[img]http://img20.imageshack.us/img20/7462/iiaiaiaiaiiaaa.png[/img]\n[img]http://img580.imageshack.us/img580/4522/iiaiaiaiaiiaiaaa.png[/img]\n[img]http://img148.imageshack.us/img148/964/iiaiaiaiaiiaiaiaaa.png[/img]\n\n\n\n\n\nGreetz\n\nViSiON,LUSi,SANTi,MAGNET,THC,T0XiCiNK,LKRG,IMAGiNE,WBZ,FLAWL3SS,NOVA\nVik,OneTwo,Rapeseed,D2U,SAFC,goldadvance,MEMORY100,KaN1vE,Unevano,Mr Hive\nand all P2P groups \nGreat Work Guys :D\n\n&lt;a class=&quot;__cf_email__&quot; href=&quot;/cdn-cgi/l/email-protection&quot; data-cfemail=&quot;5417196c143c21273c39353d387a373b39&quot;&gt;[email&amp;#160;protected]&lt;/a&gt;&lt;script cf-hash='f9e31' type=&quot;text/javascript&quot;&gt;\n/* &lt;![CDATA[ */!function(){try{var t=&quot;currentScript&quot;in document?document.currentScript:function(){for(var t=document.getElementsByTagName(&quot;script&quot;),e=t.length;e--;)if(t[e].getAttribute(&quot;cf-hash&quot;))return t[e]}();if(t&amp;&amp;t.previousSibling){var e,r,n,i,c=t.previousSibling,a=c.getAttribute(&quot;data-cfemail&quot;);if(a){for(e=&quot;&quot;,r=parseInt(a.substr(0,2),16),n=2;a.length-n;n+=2)i=parseInt(a.substr(n,2),16)^r,e+=String.fromCharCode(i);e=document.createTextNode(e),c.parentNode.replaceChild(e,c)}}}catch(u){}}();/* ]]&gt; */&lt;/script&gt;","torrent":{"xt":"urn:btih:c176a2a6db44d55310765be796a8c3647c7273d1","amp;dn":"I.Am.Number.Four.2011.BDRip.XVID.AC3.HQ.Hive-CM8","amp;tr":["udp%3A%2F%2Ftracker.openbittorrent.com%3A80","udp%3A%2F%2Fopen.demonii.com%3A1337","udp%3A%2F%2Ftracker.coppersurfer.tk%3A6969","udp%3A%2F%2Fexodus.desync.com%3A6969"],"infoHash":"c176a2a6db44d55310765be796a8c3647c7273d1","infoHashBuffer":{"type":"Buffer","data":[193,118,162,166,219,68,213,83,16,118,91,231,150,168,195,100,124,114,115,209]},"announce":[],"urlList":[]}}